<svg t="1672655797001" class="icon" viewBox="0 0 1024 1024" version="1.1" xmlns="http://www.w3.org/2000/svg" p-id="654" width="200" height="200" xmlns:xlink="http://www.w3.org/1999/xlink"><path d="M404.48 457.386667m-199.68 0a199.68 199.68 0 1 0 399.36 0 199.68 199.68 0 1 0-399.36 0Z" fill="#0615fc" opacity=".3" p-id="655"></path><path d="M512 989.866667c-22.186667 0-213.333333-13.653333-213.333333-477.866667S489.813333 34.133333 512 34.133333c98.986667 0 213.333333 124.586667 213.333333 477.866667S610.986667 989.866667 512 989.866667z m0-904.533334c-64.853333 0-162.133333 114.346667-162.133333 426.666667s97.28 426.666667 162.133333 426.666667c56.32 0 162.133333-88.746667 162.133333-426.666667S568.32 85.333333 512 85.333333z" fill="#0615fc" p-id="656"></path><path d="M238.933333 831.146667c-27.306667 0-47.786667-3.413333-66.56-8.533334-40.96-10.24-71.68-32.426667-88.746666-61.44-10.24-18.773333-93.866667-192.853333 322.56-435.2 237.226667-138.24 375.466667-143.36 448.853333-124.586666 40.96 10.24 71.68 32.426667 87.04 61.44 49.493333 85.333333-5.12 250.88-322.56 435.2C440.32 802.133333 317.44 831.146667 238.933333 831.146667z m546.133334-587.093334c-68.266667 0-180.906667 23.893333-354.986667 126.293334C148.48 534.186667 93.866667 679.253333 128 735.573333c5.12 10.24 20.48 29.013333 58.026667 37.546667 51.2 13.653333 172.373333 17.066667 407.893333-121.173333 303.786667-177.493333 331.093333-317.44 303.786667-366.933334-5.12-10.24-20.48-27.306667-56.32-37.546666-15.36 0-32.426667-3.413333-56.32-3.413334z" fill="#0615fc" p-id="657"></path><path d="M785.066667 831.146667c-80.213333 0-201.386667-29.013333-380.586667-133.12C88.746667 513.706667 34.133333 348.16 83.626667 262.826667c17.066667-29.013333 47.786667-49.493333 87.04-61.44 73.386667-20.48 209.92-13.653333 448.853333 124.586666 416.426667 242.346667 332.8 416.426667 322.56 435.2-17.066667 29.013333-47.786667 51.2-88.746667 61.44-18.773333 6.826667-40.96 8.533333-68.266666 8.533334zM128 288.426667C100.693333 337.92 126.293333 477.866667 431.786667 655.36c235.52 136.533333 356.693333 134.826667 407.893333 121.173333 37.546667-10.24 51.2-29.013333 58.026667-37.546666 32.426667-56.32-20.48-201.386667-303.786667-366.933334-233.813333-136.533333-356.693333-133.12-409.6-119.466666-37.546667 8.533333-51.2 25.6-56.32 35.84z" fill="#0615fc" p-id="658"></path></svg>
